<?xml version="1.0" encoding="UTF-8" standalone="no"?>
<svg
   viewBox="0 0 250 175"
   version="1.1"
   id="svg13"
   sodipodi:docname="icon.svg"
   inkscape:version="1.2.2 (b0a8486, 2022-12-01)"
   width="250"
   height="175"
   inkscape:export-filename="small.png"
   inkscape:export-xdpi="91.287376"
   inkscape:export-ydpi="91.287376"
   xmlns:inkscape="http://www.inkscape.org/namespaces/inkscape"
   xmlns:sodipodi="http://sodipodi.sourceforge.net/DTD/sodipodi-0.dtd"
   xmlns="http://www.w3.org/2000/svg"
   xmlns:svg="http://www.w3.org/2000/svg">
  <defs
     id="defs17" />
  <sodipodi:namedview
     id="namedview15"
     pagecolor="#ffffff"
     bordercolor="#000000"
     borderopacity="0.25"
     inkscape:showpageshadow="2"
     inkscape:pageopacity="0.0"
     inkscape:pagecheckerboard="true"
     inkscape:deskcolor="#d1d1d1"
     showgrid="false"
     inkscape:zoom="1.328"
     inkscape:cx="123.87048"
     inkscape:cy="140.06024"
     inkscape:window-width="1626"
     inkscape:window-height="884"
     inkscape:window-x="0"
     inkscape:window-y="25"
     inkscape:window-maximized="0"
     inkscape:current-layer="svg13"
     showborder="true" />
  <g
     aria-label="ZOOZ"
     id="text11"
     style="font-weight:700;font-size:61.8px;font-family:Arial, sans-serif;white-space:pre"
     transform="translate(-69.034149,-57.257303)">
    <path
       d="m 84.847402,180.56125 28.614458,-23.87018 23.23535,-28.69717 h -20.61005 v -7.48359 l 46.68584,-9.03614 -14.30723,15.97657 -24.23115,29.84384 h 25.1666 v 7.45342 z"
       id="path177"
       sodipodi:nodetypes="ccccccccccc"
       style="fill:#ffffff" />
    <path
       d="m 153.23354,142.90074 q 0,-6.75938 2.02178,-11.3461 1.50879,-3.37969 4.10391,-6.06533 2.62529,-2.68564 5.73339,-3.9832 4.13409,-1.7502 9.53555,-1.7502 9.77695,0 15.63105,6.06533 5.88428,6.06534 5.88428,16.86827 0,10.7124 -5.82392,16.77773 -5.82393,6.03516 -15.57071,6.03516 -9.86748,0 -15.6914,-6.00498 -5.82393,-6.03516 -5.82393,-16.59668 z m 9.20362,-0.30176 q 0,7.51377 3.47021,11.40644 3.47021,3.8625 8.81133,3.8625 5.34111,0 8.75097,-3.83232 3.44004,-3.8625 3.44004,-11.55733 0,-7.60429 -3.34951,-11.34609 -3.31933,-3.7418 -8.8415,-3.7418 -5.52217,0 -8.90186,3.80215 -3.37968,3.77198 -3.37968,11.40645 z"
       id="path179"
       style="fill:#ffffff" />
    <path
       d="m 201.30356,142.90074 q 0,-6.75938 2.02177,-11.3461 1.50879,-3.37969 4.10391,-6.06533 2.62529,-2.68564 5.7334,-3.9832 4.13408,-1.7502 9.53555,-1.7502 9.77695,0 15.63105,6.06533 5.88428,6.06534 5.88428,16.86827 0,10.7124 -5.82393,16.77773 -5.82392,6.03516 -15.5707,6.03516 -9.86748,0 -15.69141,-6.00498 -5.82392,-6.03516 -5.82392,-16.59668 z m 9.20361,-0.30176 q 0,7.51377 3.47021,11.40644 3.47022,3.8625 8.81133,3.8625 5.34112,0 8.75098,-3.83232 3.44004,-3.8625 3.44004,-11.55733 0,-7.60429 -3.34951,-11.34609 -3.31934,-3.7418 -8.84151,-3.7418 -5.52217,0 -8.90185,3.80215 -3.37969,3.77198 -3.37969,11.40645 z"
       id="path181"
       style="fill:#ffffff" />
    <path
       d="m 233.79758,179.80824 13.55422,-23.11717 23.23535,-28.69717 h -20.61006 v -7.48359 l 47.43886,-7.53012 -15.06024,14.47055 -24.23115,29.84384 h 25.1666 l 12.8012,2.93535 z"
       id="path183"
       sodipodi:nodetypes="ccccccccccc"
       style="fill:#ffffff" />
  </g>
</svg>
