<?xml version="1.0" encoding="UTF-8" standalone="no"?>
<!-- Created with Inkscape (http://www.inkscape.org/) -->

<svg
   version="1.1"
   id="svg345"
   width="140"
   height="135"
   viewBox="0 0 140 135"
   sodipodi:docname="icon2.svg"
   inkscape:version="1.2.2 (b0a8486, 2022-12-01)"
   xmlns:inkscape="http://www.inkscape.org/namespaces/inkscape"
   xmlns:sodipodi="http://sodipodi.sourceforge.net/DTD/sodipodi-0.dtd"
   xmlns="http://www.w3.org/2000/svg"
   xmlns:svg="http://www.w3.org/2000/svg">
  <defs
     id="defs349" />
  <sodipodi:namedview
     id="namedview347"
     pagecolor="#ffffff"
     bordercolor="#000000"
     borderopacity="0.25"
     inkscape:showpageshadow="2"
     inkscape:pageopacity="0.0"
     inkscape:pagecheckerboard="0"
     inkscape:deskcolor="#d1d1d1"
     showgrid="false"
     inkscape:zoom="1.7481481"
     inkscape:cx="29.745763"
     inkscape:cy="30.317797"
     inkscape:window-width="1551"
     inkscape:window-height="810"
     inkscape:window-x="0"
     inkscape:window-y="25"
     inkscape:window-maximized="0"
     inkscape:current-layer="g351" />
  <g
     inkscape:groupmode="layer"
     inkscape:label="Image"
     id="g351"
     style="display:inline"
     transform="translate(-3.4322034,2.2881356)">
    <path
       style="display:inline;fill:#000000"
       d="m 45.432218,124.9165 c -4.675,-0.44605 -10.43628,-1.34987 -12.80285,-2.0085 -5.72864,-1.59431 -13.60636,-8.75302 -15.61069,-14.18587 -4.48047,-12.144621 -4.82474,-68.898721 -0.49978,-82.393181 1.75662,-5.480916 6.63835,-11.155916 11.88242,-13.813286 6.57932,-3.3339901 17.84996,-4.4809991 44.030898,-4.4809991 40.360484,0 49.441774,2.8117391 55.438934,17.1649591 4.74111,11.347086 4.72308,70.651446 -0.0254,83.522507 -1.90976,5.1765 -9.71031,12.45286 -15.0617,14.04956 -9.75574,2.91082 -46.919214,4.09429 -67.351832,2.14481 z m 55.499992,-1.94753 c 11.31218,-1.2753 14.7907,-2.40729 19.14468,-6.23015 6.82681,-5.994 8.28,-11.91496 9.87591,-40.238821 0.6526,-11.58206 -0.82231,-38.38045 -2.5984,-47.21191 -1.38794,-6.901396 -7.95513,-14.429836 -14.54654,-16.675756 -7.76385,-2.6454101 -37.574054,-4.0759001 -57.656792,-2.7667501 -20.59082,1.3422601 -25.91929,2.7011501 -30.87611,7.8741001 -5.26021,5.48957 -6.67586,8.987516 -7.8686,19.442546 -1.35719,11.89665 -1.36769,46.37007 -0.018,59.11945 1.16471,11.001961 3.15703,15.854491 8.39917,20.457141 4.23597,3.71924 7.95809,5.0115 17.67603,6.13684 10.65336,1.23367 47.827188,1.29299 58.468652,0.0933 z M 47.432218,120.9165 c -4.675,-0.44605 -10.51017,-1.37056 -12.96705,-2.05447 -5.33508,-1.48512 -12.2728,-7.97149 -13.85859,-12.95699 -4.39446,-13.815601 -4.09749,-67.971381 0.43219,-78.815211 3.52056,-8.428036 10.02992,-12.402896 22.89515,-13.980666 11.24852,-1.37949 45.073188,-1.42788 56.826682,-0.0813 12.70716,1.45585 19.53912,5.62106 23.06506,14.061956 5.10155,12.21286 4.72225,69.71708 -0.53205,80.661391 -2.4279,5.05713 -7.5653,9.5457 -12.66766,11.06784 -9.5333,2.84395 -43.539634,3.97264 -63.193732,2.09744 z m 53.354912,-2.00335 c 10.07217,-1.11419 15.40396,-3.40369 18.98895,-8.15391 3.55193,-4.70644 4.50647,-9.26472 5.79894,-27.692131 1.2003,-17.11333 0.0194,-45.27391 -2.2419,-53.46382 -1.39706,-5.059726 -7.11012,-11.149976 -12.21449,-13.020896 -12.490114,-4.57805 -64.882722,-4.57805 -77.372832,0 -5.10255,1.87025 -10.8173,7.96068 -12.21314,13.016006 -0.56796,2.05698 -1.55803,11.3223 -2.20017,20.58961 -1.22701,17.70826 -0.10471,44.86969 2.20282,53.312001 1.47375,5.39187 5.20074,10.10419 9.8791,12.49091 8.551,4.3624 43.170848,5.82071 69.372722,2.92223 z M 64.432216,105.60951 c -21.570378,-4.796 -35.843108,-27.059771 -30.562158,-47.673341 3.14094,-12.26028 10.66228,-21.39864 22.34646,-27.15074 6.130628,-3.0181 7.450058,-3.28543 16.215698,-3.28543 8.76564,0 10.08508,0.26733 16.21569,3.28543 11.709714,5.76467 19.204944,14.88818 22.365194,27.22386 5.38571,21.02247 -9.86806,43.846881 -32.014544,47.903771 -7.02232,1.28638 -7.45621,1.27733 -14.56634,-0.30355 z m 24.25953,-4.4165 c 7.79012,-3.835071 14.844664,-11.047171 18.560404,-18.974941 2.35017,-5.01423 2.67882,-6.94897 2.66998,-15.71807 -0.009,-8.94037 -0.31048,-10.61431 -2.84506,-15.79745 -14.221464,-29.082336 -55.068242,-29.082336 -69.289712,0 -2.53458,5.18314 -2.83606,6.85708 -2.84506,15.79745 -0.009,8.75103 0.3222,10.70881 2.65033,15.67515 4.69362,10.01238 13.72944,18.039501 24.125628,21.432421 2.60097,0.84886 7.33528,1.25771 12.36849,1.06813 6.76084,-0.25464 9.25699,-0.84987 14.605,-3.48269 z m -26.33018,1.50417 C 32.353658,94.182499 25.690458,53.348519 51.496918,36.115629 c 7.283988,-4.86406 13.872648,-6.49201 23.920498,-5.91034 13.49852,0.78141 24.658784,8.25489 30.697654,20.55672 2.5198,5.1331 2.81675,6.79439 2.81694,15.75902 1.9e-4,9.28508 -0.23848,10.50584 -3.24973,16.62258 -6.147694,12.48773 -17.146254,19.731081 -31.054664,20.451741 -4.53847,0.23516 -9.57045,-0.1333 -12.26605,-0.89817 z m 23.77227,-2.887252 c 2.8609,-1.05459 7.3778,-3.873979 10.03755,-6.265329 20.815714,-18.71512 13.071114,-53.25936 -13.67067,-60.97706 -10.55731,-3.04685 -21.38145,-1.26615 -30.719768,5.05377 -9.51663,6.44061 -14.70411,16.63205 -14.69935,28.87869 0.0102,26.1824 24.068258,42.519531 49.052238,33.309929 z M 63.767786,89.366249 c -5.27043,-1.86783 -12.805008,-9.79253 -14.246518,-14.98417 -4.55969,-16.42189 6.36222,-31.38208 22.910948,-31.38208 10.10123,0 17.798,4.91673 21.91596,14 8.764504,19.33244 -10.33063,39.54271 -30.58039,32.36625 z m 18.16443,-2.26211 c 7.93671,-3.67458 12.64285,-11.3442 12.64285,-20.60414 0,-6.6626 -1.92675,-11.22266 -6.70102,-15.85937 -13.93909,-13.53747 -37.441828,-3.63416 -37.441828,15.77682 0,13.35717 8.962028,22.53863 21.999998,22.53863 3.24683,0 7.13867,-0.75868 9.5,-1.85194 z M 31.932218,36.792179 c -3.07505,-1.76354 -4.43335,-3.99898 -4.4682,-7.35362 -0.0719,-6.919056 8.4395,-10.058166 13.51365,-4.984016 3.30246,3.302456 3.1387,7.015156 -0.46853,10.622376 -3.11501,3.11502 -5.35507,3.563 -8.57692,1.71526 z m 7.18744,-1.57785 c 0.65309,-0.41527 1.60815,-1.87088 2.12235,-3.23468 2.89971,-7.690856 -8.62468,-12.669176 -11.76694,-5.0831 -1.2494,3.01633 -0.23416,6.60807 2.35685,8.33814 1.43199,0.95616 5.77104,0.94405 7.28774,-0.0203 z m -7.11601,-2.78576 c -3.02042,-3.02041 -1.28259,-7.428566 2.92857,-7.428566 4.39273,0 6.31252,5.959596 2.56574,7.964816 -2.62788,1.4064 -3.65158,1.30648 -5.49431,-0.53625 z m 5.24099,-2.69308 c 0.41122,-2.13526 -2.69907,-3.53694 -3.82083,-1.72189 -1.15355,1.86649 -0.0256,4.13959 1.87275,3.77401 0.88698,-0.17082 1.76362,-1.09427 1.94808,-2.05212 z"
       id="path529" />
  </g>
</svg>
