<?xml version="1.0" encoding="UTF-8" standalone="no"?>
<!-- Created with Inkscape (http://www.inkscape.org/) -->

<svg
   version="1.1"
   id="svg432"
   width="165"
   height="142"
   viewBox="0 0 165 142"
   sodipodi:docname="learnmode.svg"
   inkscape:version="1.2.2 (b0a8486, 2022-12-01)"
   xmlns:inkscape="http://www.inkscape.org/namespaces/inkscape"
   xmlns:sodipodi="http://sodipodi.sourceforge.net/DTD/sodipodi-0.dtd"
   xmlns="http://www.w3.org/2000/svg"
   xmlns:svg="http://www.w3.org/2000/svg">
  <defs
     id="defs436" />
  <sodipodi:namedview
     id="namedview434"
     pagecolor="#ffffff"
     bordercolor="#000000"
     borderopacity="0.25"
     inkscape:showpageshadow="2"
     inkscape:pageopacity="0.0"
     inkscape:pagecheckerboard="0"
     inkscape:deskcolor="#d1d1d1"
     showgrid="false"
     inkscape:zoom="1.6619718"
     inkscape:cx="47.533898"
     inkscape:cy="72.20339"
     inkscape:window-width="1542"
     inkscape:window-height="812"
     inkscape:window-x="0"
     inkscape:window-y="25"
     inkscape:window-maximized="0"
     inkscape:current-layer="g438" />
  <g
     inkscape:groupmode="layer"
     inkscape:label="Image"
     id="g438">
    <path
       style="fill:#000000"
       d="m 112.85875,121.52389 -3.93502,-4.05805 -17.5,0.64304 c -20.54807,0.75504 -41.6628,-0.56887 -47.71461,-2.99174 -4.15304,-1.66269 -4.43633,-1.6345 -19.3941,1.92964 -8.34873,1.98934 -15.4040598,3.39242 -15.6785198,3.11796 -0.6528,-0.65279 -0.0898,-0.81718 15.9580698,-4.65925 l 13.67083,-3.27299 -2.90162,-5.57529 c -3.50595,-6.736458 -7.94005,-19.472768 -7.94005,-22.806635 0,-9.218668 8.31437,-37.974008 14.52415,-50.231931 7.96192,-15.716583 19.28961,-19.990412 53.00208,-19.997183 14.25286,-0.0029 28.49077,1.272082 34.03606,3.047784 7.72539,2.473812 20.43921,21.848566 20.43642,31.143312 -0.003,8.554298 -8.04983,36.192396 -14.93324,51.287845 -1.50935,3.310028 -4.27904,7.535808 -6.15487,9.390608 -3.88105,3.83754 -12.21708,8.10334 -15.86355,8.11786 -2.36554,0.009 -2.3144,0.15165 1.43503,3.99141 2.13838,2.18991 3.66297,4.20665 3.38797,4.48165 -0.275,0.275 -2.27076,-1.32612 -4.43503,-3.55804 z M 99.17046,109.79633 c 0.89866,-0.57065 0.28134,-1.72739 -2.21109,-4.14314 -1.9018,-1.8433 -3.1971,-3.7733 -2.87844,-4.2889 0.31865,-0.5156 2.73734,1.18807 5.37485,3.78592 4.51386,4.44598 5.02076,4.68188 8.63171,4.01687 10.18526,-1.87575 17.46883,-7.35878 21.45577,-16.151788 6.66159,-14.691818 14.94429,-42.93782 15.06053,-51.36001 0.044,-3.185802 -1.97694,-8.379806 -5.01702,-12.894432 -0.63443,-0.942157 -1.44398,1.04757 -2.64462,6.5 -0.95167,4.321787 -4.69623,16.851473 -8.32126,27.843746 -5.82666,17.668369 -7.06096,20.496568 -10.64406,24.389301 -6.4486,7.005855 -10.65398,8.378185 -27.27175,8.899485 -13.8069,0.43313 -14.21232,0.50801 -14,2.58565 0.20159,1.972708 -0.24939,2.139608 -5.78135,2.139608 -5.38067,0 -6.03168,-0.22226 -6.30687,-2.153248 -0.29329,-2.05793 -0.89097,-2.16976 -13.5,-2.52589 -10.26586,-0.28995 -13.93429,-0.77124 -16.5335,-2.16916 l -3.34037,-1.79652 0.71868,2.32241 c 1.43684,4.64315 4.46499,9.679558 7.03561,11.701598 4.42311,3.47922 8.02485,3.50231 21.45711,0.13752 20.69266,-5.18351 19.96934,-4.93181 19.96934,-6.948948 0,-1.65931 0.43908,-1.75651 4.15919,-0.92065 2.77032,0.62244 4.50675,0.58695 5.2,-0.1063 1.57407,-1.57407 3.64081,-1.24719 3.64081,0.57582 0,1.100648 -0.6115,1.456718 -1.91589,1.115618 -1.28482,-0.33599 -2.99639,0.61377 -5.19617,2.88337 -3.72698,3.84526 -4.88794,4.20206 -4.88794,1.50218 0,-1.78092 -0.65913,-1.71961 -12.25,1.13938 -6.7375,1.66187 -12.6775,3.40886 -13.2,3.8822 -1.19649,1.08392 41.49051,1.12178 43.19673,0.0383 z m 8.25327,-19.565998 c 4.56185,-2.398242 8.79288,-6.372782 10.72535,-10.07517 3.94242,-7.5532 12.62363,-34.74179 15.25231,-47.768528 2.06701,-10.243327 -2.07983,-13.956551 -17.56785,-15.730867 -11.59287,-1.328086 -32.72883,-1.317173 -43.41225,0.02241 -8.35927,1.048164 -10.67284,1.794531 -8.24756,2.660701 3.21289,1.147462 -0.5938,7.156978 -6.43426,10.157576 -3.54604,1.821818 -7.42972,1.402344 -8.02305,-0.866567 -0.68119,-2.604868 -1.86896,-1.762154 -4.33817,3.077898 -7.04446,13.808279 -14.02422,37.337933 -14.28431,48.154181 -0.11973,4.979014 0.21462,6.096056 2.51243,8.393862 1.45779,1.45779 4.37557,3.00573 6.48395,3.43985 2.10837,0.43412 17.33341,0.69602 33.83341,0.58199 26.94902,-0.18625 30.35595,-0.39446 33.5,-2.04734 z M 62.14402,75.125259 C 43.92979,70.115843 41.12268,50.014931 56.49113,34.646479 72.06249,19.075121 99.84698,17.32894 109.42373,31.319806 c 3.5006,5.114096 3.5615,15.642871 0.13079,22.610809 C 104.6694,63.852524 92.08955,72.925449 79.62451,75.516934 72.9577,76.902965 68.22194,76.796853 62.14402,75.125259 Z M 83.33277,72.724084 C 99.21407,67.781268 110.52021,55.157408 110.6363,42.23835 110.74891,29.706444 101.40804,22.948772 85.15241,23.801974 66.2031,24.796559 49.94577,38.246018 48.68342,53.972253 c -0.5628,7.011233 0.79292,10.74471 5.49944,15.144807 5.75734,5.382498 18.41349,6.948576 29.14991,3.607024 z M 66.75782,67.55496 c -5.1075,-2.528195 -7.33409,-6.785115 -7.33409,-14.021721 0,-14.001561 13.21355,-24.871714 26.62039,-21.899308 12.859,2.850944 19.39796,12.821757 14.7845,22.543888 -3.7695,7.943632 -16.24655,15.441805 -25.6924,15.440036 -2.31687,-4.33e-4 -6.08715,-0.928736 -8.3784,-2.062895 z m 16.76669,-1.094922 c 9.49019,-3.23468 16.89922,-11.362508 16.89922,-18.538732 0,-9.738897 -12.66363,-17.35523 -23.84869,-14.343406 -5.02451,1.352961 -11.89967,7.209332 -13.80418,11.758625 -1.68526,4.025566 -1.72288,12.971115 -0.0685,16.282119 2.599,5.201452 12.80416,7.574273 20.82213,4.841394 z"
       id="path2716" />
  </g>
</svg>
